<svg version="1.1" id="Layer_1" xmlns="http://www.w3.org/2000/svg" xmlns:xlink="http://www.w3.org/1999/xlink" x="0px" y="0px"
	 width="100%" viewBox="0 0 1024 576" enable-background="new 0 0 1024 576" xml:space="preserve">
<path fill="#000000" opacity="1.000000" stroke="none" 
	d="
M427.547913,326.423218 
	C424.631866,322.607452 420.344208,322.831299 416.585052,321.768433 
	C407.832397,319.293671 404.060455,313.228241 406.768188,305.916382 
	C407.301941,304.475098 408.098236,303.250732 409.219238,302.215668 
	C414.659760,297.192047 427.400330,296.856415 432.994934,301.720764 
	C434.210144,302.777313 435.316864,304.198395 435.902313,305.677704 
	C436.607117,307.458405 438.595642,309.957733 435.407471,311.143677 
	C432.942413,312.060608 429.967957,313.533966 427.782837,310.267181 
	C425.897156,307.448029 423.888580,304.944702 419.848145,306.069702 
	C417.974518,306.591370 416.228790,307.080750 416.274506,309.465973 
	C416.314240,311.537170 417.848236,312.260315 419.531372,312.684631 
	C422.431305,313.415649 425.396790,313.916962 428.253448,314.782898 
	C434.892212,316.795288 438.453125,321.490204 438.099121,327.472351 
	C437.755585,333.278259 433.384369,337.580963 426.711700,338.950714 
	C423.568329,339.595978 421.862793,338.665741 421.628387,335.221497 
	C421.240814,337.102722 421.277985,339.065399 418.555634,339.170013 
	C413.928345,339.347839 407.775208,335.751434 406.171753,331.306122 
	C405.521149,329.502411 403.627686,326.872040 406.598358,325.703918 
	C409.136658,324.705872 412.307159,323.260132 414.541870,326.806885 
	C416.949890,330.628662 420.427002,331.885162 424.781158,330.728851 
	C426.806885,330.190887 427.980621,329.020844 427.547913,326.423218 
z"/>
<path fill="#000000" opacity="1.000000" stroke="none" 
	d="
M454.388977,262.361725 
	C449.307587,262.118988 444.688141,261.338562 443.577118,268.195587 
	C442.988037,271.831421 439.192688,271.175781 436.453094,270.705505 
	C433.498779,270.198364 433.460297,267.538025 434.093109,265.534210 
	C437.601349,254.425095 441.282684,243.368851 445.056641,232.346512 
	C446.216248,228.959686 449.411133,229.958603 451.956757,229.824753 
	C454.321106,229.700424 456.722504,229.640793 457.744720,232.513199 
	C461.874146,244.116714 466.031494,255.710358 470.132843,267.323761 
	C470.808624,269.237305 470.178436,270.420959 468.001434,270.911591 
	C462.907135,272.059723 460.185120,270.782318 458.318726,265.992950 
	C457.643768,264.260864 457.178833,262.418274 454.388977,262.361725 
M451.833679,244.146362 
	C451.717010,244.030289 451.613403,243.842651 451.479980,243.818344 
	C451.346954,243.794083 451.098694,243.894135 451.046692,244.006897 
	C449.743683,246.833786 448.615601,249.708527 448.604340,253.235321 
	C450.587585,253.785263 452.357574,254.306213 454.421204,252.666977 
	C453.623383,249.952255 452.841309,247.291138 451.833679,244.146362 
z"/>
<path fill="#000000" opacity="1.000000" stroke="none" 
	d="
M527.956299,161.702164 
	C530.278748,161.708771 532.112549,161.783875 533.939941,161.706863 
	C536.915527,161.581451 538.116272,162.997360 538.150757,165.906647 
	C538.185120,168.805252 537.061523,170.262894 534.056824,170.206482 
	C530.562683,170.140884 527.065796,170.169266 523.570740,170.213150 
	C518.009644,170.282974 517.720825,170.663589 518.735779,176.763412 
	C523.114502,176.763412 527.578674,176.854340 532.037048,176.733017 
	C535.270447,176.645035 536.428467,178.038818 536.397644,181.224579 
	C536.367554,184.331589 534.950745,185.330643 532.107361,185.254486 
	C528.947205,185.169830 525.776062,185.115692 522.622192,185.283432 
	C519.733215,185.437088 518.295471,184.278244 517.822754,181.390213 
	C517.822754,187.039276 517.754456,192.689423 517.845154,198.337021 
	C517.913452,202.592789 515.158936,202.408966 512.152954,202.430191 
	C509.072906,202.451935 507.577209,201.475601 507.614258,198.135071 
	C507.732391,187.483383 507.745911,176.828445 507.610535,166.177170 
	C507.564667,162.567383 509.242401,161.577988 512.486755,161.662613 
	C517.476379,161.792725 522.471802,161.700317 527.956299,161.702164 
z"/>
<path fill="#000000" opacity="1.000000" stroke="none" 
	d="
M430.992279,242.508484 
	C429.805786,244.914139 428.709717,246.934082 427.557220,249.057999 
	C429.204041,251.521591 431.425446,253.605423 432.031250,256.687958 
	C433.157379,262.417572 429.485657,268.438538 423.605896,270.212952 
	C420.039093,271.289368 416.369141,271.061920 412.716705,270.969177 
	C409.660004,270.891571 408.862579,269.049225 408.922333,266.312592 
	C408.985565,263.415802 410.588959,262.601501 413.122009,262.716644 
	C413.784790,262.746765 414.451904,262.723267 415.115356,262.690552 
	C418.298004,262.533539 421.390228,261.869904 421.581665,258.002350 
	C421.786804,253.857666 418.297455,254.195160 415.559906,253.775146 
	C412.577240,253.317505 408.368073,254.701782 408.836395,249.089142 
	C409.045807,246.579391 409.738342,244.889923 412.582886,244.928665 
	C413.247101,244.937714 413.918091,244.964310 414.575195,244.888885 
	C416.882111,244.624023 420.355835,245.763092 420.493103,242.139420 
	C420.648438,238.039948 416.979218,238.536697 414.232666,238.394806 
	C409.432098,238.146790 407.984344,236.541321 408.980072,232.468689 
	C409.225861,231.463516 409.594147,230.654404 410.598145,230.136841 
	C418.868439,225.873474 430.745728,232.809387 430.992279,242.508484 
z"/>
<path fill="#000000" opacity="1.000000" stroke="none" 
	d="
M460.713135,333.909790 
	C456.986542,328.053345 453.533539,322.404419 449.309631,315.494324 
	C449.309631,322.734100 449.186401,328.629608 449.356842,334.516602 
	C449.455658,337.928925 448.200256,339.276642 444.729187,339.284149 
	C441.236877,339.291687 439.535065,338.316467 439.598785,334.470459 
	C439.764191,324.488037 439.498413,314.497253 439.745453,304.518250 
	C439.798737,302.365356 438.908112,299.011810 442.267548,298.248596 
	C445.846527,297.435516 449.062164,297.965149 451.148315,301.829346 
	C454.229156,307.536072 457.724396,313.018311 461.011169,318.614960 
	C463.622833,323.062073 463.201324,327.882843 462.589081,332.695618 
	C462.489166,333.480865 462.130554,334.334686 460.713135,333.909790 
z"/>
<path fill="#000000" opacity="1.000000" stroke="none" 
	d="
M521.276001,330.918884 
	C520.810486,334.625458 523.025757,339.199768 516.677063,339.251007 
	C512.646545,339.283569 510.867676,337.979309 510.938293,333.821899 
	C511.085144,325.179352 510.982666,316.532562 510.982666,308.165222 
	C509.028625,306.498260 507.111359,307.055542 505.346619,307.006683 
	C502.123962,306.917480 500.542389,305.707825 500.586761,302.168121 
	C500.631775,298.578522 502.691589,298.054688 505.434326,298.050476 
	C512.600159,298.039459 519.766113,298.043732 526.931885,298.072662 
	C529.574890,298.083344 531.348938,298.890472 531.381714,302.093353 
	C531.413330,305.185974 530.305298,307.081512 527.147217,306.830902 
	C522.064331,306.427490 520.962524,308.930573 521.210938,313.437622 
	C521.522339,319.086487 521.280029,324.765900 521.276001,330.918884 
z"/>
<path fill="#000000" opacity="1.000000" stroke="none" 
	d="
M476.630310,333.872253 
	C476.413391,328.785583 477.194977,324.102234 475.630463,319.009277 
	C470.918030,323.656250 469.376892,330.076385 463.917511,335.488678 
	C463.985474,328.688934 462.321259,323.231720 465.558289,317.980530 
	C468.614349,313.023071 471.809204,308.123444 474.455139,302.948944 
	C476.900085,298.167542 480.429474,297.204956 485.432556,298.543030 
	C487.101990,304.836365 486.206757,311.300140 486.348633,317.689331 
	C486.470551,323.179382 486.284088,328.676239 486.400055,334.166565 
	C486.465668,337.272705 485.827881,339.247681 482.089447,339.279083 
	C478.508514,339.309113 476.149963,338.553864 476.630310,333.872253 
z"/>
<path fill="#000000" opacity="1.000000" stroke="none" 
	d="
M575.070007,270.451965 
	C566.299194,271.726044 564.972778,270.920593 563.851746,262.717407 
	C563.254089,258.344025 561.459900,255.958557 556.851135,256.243134 
	C553.772339,256.433228 552.845520,254.728928 552.818481,251.921906 
	C552.790039,248.977264 554.020752,247.583969 556.978271,247.746323 
	C557.473694,247.773529 557.973999,247.721390 558.471558,247.695862 
	C561.726257,247.528839 563.957825,246.193390 563.851746,242.583481 
	C563.750305,239.131607 561.422119,238.078278 558.435059,238.161880 
	C555.023132,238.257370 552.479126,237.683823 552.773071,233.348145 
	C552.940674,230.875504 553.970032,229.937378 556.429260,229.694595 
	C570.923706,228.263565 577.669983,237.160599 572.136169,250.679855 
	C571.480225,252.282486 571.934265,253.434387 572.313416,254.900208 
	C573.620789,259.955109 575.041748,265.003021 575.070007,270.451965 
z"/>
<path fill="#000000" opacity="1.000000" stroke="none" 
	d="
M482.952637,243.772263 
	C486.098816,238.734146 490.151703,234.956619 494.235474,231.368805 
	C497.610474,228.403641 502.044159,229.841110 505.978027,230.197662 
	C506.873901,232.419479 505.322296,233.242218 504.331146,234.225143 
	C500.435516,238.088516 496.592682,242.017899 492.501953,245.666794 
	C490.232605,247.691025 490.148682,249.252792 492.139099,251.456970 
	C496.595093,256.391663 500.902893,261.460144 505.269287,266.475677 
	C506.124725,267.458344 507.300201,268.238739 507.366516,269.728760 
	C501.748383,272.306549 497.488586,271.538116 493.718597,267.245422 
	C492.072845,265.371521 490.643768,263.268127 488.811615,261.604523 
	C483.576477,256.851105 481.552917,251.107895 482.952637,243.772263 
z"/>
<path fill="#000000" opacity="1.000000" stroke="none" 
	d="
M495.782837,297.989563 
	C498.838196,298.341034 499.280945,300.157806 499.276367,302.342499 
	C499.253632,313.143127 499.163452,323.944733 499.285736,334.743866 
	C499.331573,338.790497 497.073761,339.257812 493.852051,339.277740 
	C490.631134,339.297607 488.832184,338.344666 488.855804,334.775269 
	C488.927307,323.975250 488.932159,313.173706 488.822479,302.374176 
	C488.771881,297.393188 492.159363,297.936005 495.782837,297.989563 
z"/>
<path fill="#000000" opacity="1.000000" stroke="none" 
	d="
M570.226440,305.123596 
	C570.221680,315.066254 570.117737,324.525574 570.259033,333.981201 
	C570.316467,337.821442 568.835144,339.254822 564.981079,339.299957 
	C561.026062,339.346283 559.723938,337.759613 559.773438,333.979431 
	C559.901733,324.191742 559.868713,314.400055 559.742615,304.612000 
	C559.693359,300.784912 559.796631,297.886047 565.040405,297.836517 
	C570.458069,297.785370 570.415466,300.924805 570.226440,305.123596 
z"/>
<path fill="#000000" opacity="1.000000" stroke="none" 
	d="
M509.746338,258.978027 
	C509.739502,250.483963 509.862396,242.482101 509.669128,234.487900 
	C509.575256,230.604736 511.404053,229.717712 514.844666,229.672852 
	C518.327942,229.627487 520.138672,230.610489 520.096680,234.419952 
	C519.979065,245.081680 519.980164,255.745850 520.063721,266.408051 
	C520.094604,270.346649 517.892029,271.082367 514.603943,271.040649 
	C511.450836,271.000580 509.437439,270.153290 509.714600,266.469818 
	C509.889130,264.150024 509.746368,261.806366 509.746338,258.978027 
z"/>
<path fill="#000000" opacity="1.000000" stroke="none" 
	d="
M471.766693,248.001068 
	C471.772614,243.005386 471.885651,238.506073 471.751282,234.014160 
	C471.635376,230.140213 474.015594,229.794678 476.966309,229.790680 
	C479.870575,229.786743 482.294403,229.969986 482.259521,233.900146 
	C482.163391,244.722382 482.136353,255.547089 482.269684,266.368530 
	C482.319641,270.421570 479.985168,270.954529 476.810059,270.988037 
	C473.344513,271.024689 471.591553,269.749847 471.714447,265.983643 
	C471.904449,260.161591 471.765717,254.328842 471.766693,248.001068 
z"/>
<path fill="#000000" opacity="1.000000" stroke="none" 
	d="
M533.100769,320.815887 
	C533.051086,314.515411 533.104004,308.688751 532.926208,302.869141 
	C532.799500,298.723450 535.088379,297.947845 538.603455,297.874847 
	C542.423279,297.795532 543.423096,299.541962 543.372742,303.046936 
	C543.224609,313.361786 543.192627,323.682190 543.372070,333.995911 
	C543.438904,337.839020 542.166992,339.281372 538.221558,339.316711 
	C534.006287,339.354462 532.867676,337.205353 533.239502,333.749359 
	C533.688965,329.571503 533.136597,325.443115 533.100769,320.815887 
z"/>
<path fill="#000000" opacity="1.000000" stroke="none" 
	d="
M506.287231,174.018677 
	C506.287445,182.171646 506.170197,189.831085 506.334442,197.484512 
	C506.412415,201.116333 505.099609,202.551163 501.398010,202.484894 
	C497.917480,202.422607 495.677582,201.887833 495.750519,197.618210 
	C495.929565,187.134720 495.907166,176.645020 495.771820,166.160324 
	C495.719208,162.086426 497.990601,161.645065 501.214325,161.647552 
	C504.339722,161.649963 506.441345,162.325592 506.266998,166.033508 
	C506.149872,168.524109 506.270874,171.025909 506.287231,174.018677 
z"/>
<path fill="#000000" opacity="1.000000" stroke="none" 
	d="
M552.346069,239.049530 
	C552.338074,248.367798 552.193054,257.195312 552.391785,266.015015 
	C552.475281,269.720856 551.053650,271.064484 547.479370,271.085571 
	C543.793274,271.107269 541.873108,269.867828 542.005676,265.879913 
	C542.336792,255.921341 542.668701,245.959351 542.051941,235.994492 
	C541.824280,232.316956 542.418396,229.645889 547.334839,229.609726 
	C552.465393,229.571991 552.490295,232.516235 552.372131,236.058411 
	C552.344421,236.890152 552.354919,237.723175 552.346069,239.049530 
z"/>
<path fill="#000000" opacity="1.000000" stroke="none" 
	d="
M479.315277,185.996674 
	C479.310669,190.495209 479.206726,194.497223 479.321259,198.492996 
	C479.411865,201.654419 477.767273,202.524185 474.972839,202.425247 
	C472.313904,202.331131 469.250397,202.884171 469.216156,198.830978 
	C469.121918,187.668274 469.109253,176.504807 469.090332,165.341599 
	C469.084167,161.698212 471.630768,161.674973 474.289246,161.685272 
	C476.981903,161.695724 479.350220,161.816116 479.309113,165.501358 
	C479.234802,172.165894 479.302063,178.832016 479.315277,185.996674 
z"/>
<path fill="#000000" opacity="1.000000" stroke="none" 
	d="
M398.620483,262.916229 
	C398.616211,253.284836 398.686707,244.139328 398.567780,234.996277 
	C398.524261,231.650131 399.241394,229.720337 403.203735,229.688690 
	C407.204712,229.656738 408.383545,231.270294 408.320312,235.045074 
	C408.153290,245.017715 408.191864,254.995682 408.297607,264.969971 
	C408.335022,268.500793 408.098663,271.109558 403.405762,271.066895 
	C398.740723,271.024475 398.315765,268.423706 398.608459,264.898987 
	C398.649597,264.403442 398.618103,263.901855 398.620483,262.916229 
z"/>
<path fill="#000000" opacity="1.000000" stroke="none" 
	d="
M452.052277,202.380890 
	C448.068939,202.730057 446.886688,200.923813 446.928314,197.643005 
	C447.023132,190.171646 447.097534,182.696213 446.946350,175.227158 
	C446.865814,171.249512 448.987549,170.657532 452.283722,170.609497 
	C455.819519,170.557968 457.429901,171.678040 457.329437,175.462234 
	C457.131195,182.929443 457.156982,190.407684 457.309845,197.876862 
	C457.382324,201.416656 455.829559,202.702316 452.052277,202.380890 
z"/>
<path fill="#000000" opacity="1.000000" stroke="none" 
	d="
M460.863892,170.241241 
	C454.397491,170.241898 448.412476,170.241959 442.427460,170.244659 
	C439.536865,170.245972 436.722504,170.531235 436.654327,166.134598 
	C436.581848,161.459641 439.557159,161.712982 442.646423,161.721329 
	C448.798309,161.737961 454.950592,161.696472 461.102020,161.752762 
	C464.001770,161.779282 467.283997,161.023560 467.348938,165.866196 
	C467.411743,170.551376 464.425354,170.279129 460.863892,170.241241 
z"/>
<path fill="#000000" opacity="1.000000" stroke="none" 
	d="
M521.652588,230.603775 
	C526.954895,229.260452 531.955444,229.911041 536.930847,229.881378 
	C539.920044,229.863541 540.260254,231.987366 540.230042,234.378021 
	C540.200562,236.705963 539.471741,238.270401 536.834656,238.265381 
	C532.505249,238.257141 528.133728,238.643784 523.857361,238.168152 
	C518.709778,237.595642 521.015991,233.744705 521.652588,230.603775 
z"/>
<path fill="#000000" opacity="1.000000" stroke="none" 
	d="
M531.902222,271.013519 
	C529.258911,271.008575 527.093750,271.000732 524.928589,270.996918 
	C522.151306,270.992035 520.699341,269.916382 520.663879,266.826874 
	C520.624634,263.403778 522.298645,262.513672 525.289490,262.600677 
	C528.784424,262.702332 532.285278,262.701630 535.781311,262.631622 
	C538.455261,262.578033 540.241943,263.151703 540.319763,266.408905 
	C540.397766,269.676758 538.925354,270.965088 535.877319,270.960754 
	C534.711670,270.959076 533.546021,270.994080 531.902222,271.013519 
z"/>
<path fill="#000000" opacity="1.000000" stroke="none" 
	d="
M521.261902,202.260483 
	C517.544983,200.841156 518.621765,198.041840 519.000854,195.824127 
	C519.347534,193.795898 521.521362,194.032822 523.125854,194.000687 
	C526.589539,193.931274 530.055786,193.994934 533.520935,193.986282 
	C536.403870,193.979080 538.174622,194.937515 538.228027,198.268417 
	C538.282532,201.671143 536.574402,202.509781 533.609802,202.417587 
	C529.653076,202.294495 525.690796,202.348633 521.261902,202.260483 
z"/>
<path fill="#000000" opacity="1.000000" stroke="none" 
	d="
M580.350281,287.213379 
	C584.395508,289.465027 585.198486,292.720459 583.830627,296.357910 
	C582.731384,299.281036 580.173035,300.584259 577.010925,300.311615 
	C573.478638,300.007080 571.717590,297.673492 571.093018,294.495758 
	C570.144653,289.670898 574.016235,286.493622 580.350281,287.213379 
z"/>
<path fill="#000000" opacity="1.000000" stroke="none" 
	d="
M538.367859,249.075562 
	C538.362610,249.703110 538.391113,249.879501 538.343018,250.031677 
	C537.314026,253.286270 530.912781,254.588104 523.603821,253.330338 
	C520.472473,252.791489 520.744019,250.674973 520.740112,248.535690 
	C520.738953,247.888107 520.687866,246.968918 521.066406,246.634186 
	C525.056885,243.105865 529.863953,245.477295 534.284851,244.973221 
	C536.710327,244.696655 538.513733,245.710770 538.367859,249.075562 
z"/>
<path fill="#000000" opacity="1.000000" stroke="none" 
	d="
M549.209290,321.991943 
	C545.608276,322.148468 543.736145,321.142456 543.775024,317.513794 
	C543.812500,314.023651 545.985535,313.408752 548.641602,313.291687 
	C550.617310,313.204620 552.614258,313.527588 554.584167,313.398926 
	C557.883179,313.183441 559.360962,314.276337 559.317688,317.877991 
	C559.270874,321.780548 557.067871,322.133423 554.139099,322.029846 
	C552.650024,321.977203 551.158020,322.007782 549.209290,321.991943 
z"/>
<path fill="#000000" opacity="1.000000" stroke="none" 
	d="
M481.570770,177.223999 
	C484.789185,176.953629 487.596619,176.933517 490.393982,176.755234 
	C493.572601,176.552689 495.303192,177.475357 495.312653,181.128250 
	C495.322510,184.936035 493.315979,185.514221 490.269073,185.319473 
	C488.623505,185.214310 486.965240,185.325363 485.313263,185.300705 
	C479.566528,185.214935 478.441315,183.070374 481.570770,177.223999 
z"/>
</svg>